[img]http://img191.imageshack.us/img191/6278/hitandrung.jpg[/img]

[b][size=200][color=black]PLOT[/color][/size][/b]

[code]Former getaway driver Charlie Bronson jeopardizes his Witness
Protection Plan identity in order to help his girlfriend get to Los
Angeles. The feds and Charlie's former gang chase them on the road. [/code]

[b][size=200][color=black]IMDB[/color][/size][/b]

[code]http://www.imdb.com/title/tt2097307/[/code]

[b][size=200][color=black]MOVIE INFO[/color][/size][/b]

[code]Hit and Run [2012] BRRip x264 AAC-V3nom

Format                                   : MPEG-4
Format profile                           : Base Media / Version 2
Codec ID                                 : mp42
File size                                : 342 MiB
Duration                                 : 1h 40mn
Overall bit rate mode                    : Variable
Overall bit rate                         : 477 Kbps
Encoded date                             : UTC 2012-12-24 10:53:30
Tagged date                              : UTC 2012-12-24 11:43:43

Video
ID                                       : 1
Format                                   : AVC
Format/Info                              : Advanced Video Codec
Format profile                           : Main@L2.1
Format settings, CABAC                   : Yes
Format settings, ReFrames                : 4 frames
Codec ID                                 : avc1
Codec ID/Info                            : Advanced Video Coding
Duration                                 : 1h 40mn
Bit rate mode                            : Variable
Bit rate                                 : 356 Kbps
Width                                    : 640 pixels
Height                                   : 272 pixels
Display aspect ratio                     : 2.40:1
Original display aspect ratio            : 2.40:1
Frame rate mode                          : Variable
Frame rate                               : 23.976 fps
Minimum frame rate                       : 7.992 fps
Maximum frame rate                       : 23.981 fps
Color space                              : YUV
Chroma subsampling                       : 4:2:0
Bit depth                                : 8 bits
Scan type                                : Progressive
Bits/(Pixel*Frame)                       : 0.085
Stream size                              : 248 MiB (73%)
Writing library                          : x264 core 112

Audio
ID                                       : 2
Format                                   : AAC
Format/Info                              : Advanced Audio Codec
Format profile                           : LC
Codec ID                                 : 40
Duration                                 : 1h 38mn
Bit rate mode                            : Variable
Bit rate                                 : 128 Kbps
Maximum bit rate                         : 214 Kbps
Channel(s)                               : 2 channels
Channel positions                        : Front: L R
Sampling rate                            : 48.0 KHz
Compression mode                         : Lossy
Delay relative to video                  : 167ms
Stream size                              : 90.2 MiB (26%)
Language                                 : English
Encoded date                             : UTC 2012-12-24 10:53:30
Tagged date                              : UTC 2012-12-24 11:43:37[/code]

[b][size=200][color=black]SOURCE[/color][/size][/b]

[code]Hit and Run (2012) 1080p BrRip x264 - YIFY(Thanks)[/code]

[b][size=200][color=black]SCREENSHOTS[/color][/size][/b]

[img]http://img831.imageshack.us/img831/6261/hitandrun2012brripx264a.jpg[/img]

[img]http://kastatic.com/i2/users/133df62bbf28e62494bb17fe11078f1a.gif[/img][img]http://kastatic.com/i2/users/133df62bbf28e62494bb17fe11078f1a.gif[/img]